<svg width="123" height="122" viewBox="0 0 123 122" fill="none" xmlns="http://www.w3.org/2000/svg">
<path d="M34.4122 21.3069C33.9975 21.5734 33.577 21.7398 33.1509 21.8062C32.727 21.8622 32.3374 21.824 31.982 21.6917C31.6225 21.5531 31.3338 21.3283 31.1161 21.0175L32.2456 20.2918C32.4082 20.5029 32.6344 20.6235 32.9243 20.6536C33.2164 20.6733 33.5092 20.5889 33.8027 20.4003C34.109 20.2035 34.3083 19.9944 34.4004 19.7729C34.4948 19.541 34.4825 19.3325 34.3636 19.1474C34.2365 18.9496 34.0465 18.8643 33.7936 18.8916C33.547 18.9148 33.1827 19.0001 32.7005 19.1476C32.2351 19.2933 31.8452 19.3951 31.5308 19.4529C31.2163 19.5107 30.8989 19.4937 30.5785 19.402C30.2646 19.3062 29.9969 19.086 29.7755 18.7414C29.5951 18.4607 29.5141 18.1521 29.5324 17.8158C29.5466 17.4731 29.6638 17.1363 29.884 16.8055C30.1106 16.4707 30.4249 16.1741 30.827 15.9158C31.4268 15.5304 32.007 15.374 32.5675 15.4466C33.1303 15.5088 33.5926 15.7933 33.9543 16.3001L32.8631 17.0012C32.6922 16.7774 32.4756 16.6506 32.2131 16.6209C31.9506 16.5913 31.6726 16.6707 31.379 16.8593C31.0919 17.0438 30.9066 17.2395 30.8231 17.4463C30.7397 17.6532 30.7553 17.846 30.8701 18.0247C30.9603 18.165 31.0872 18.2503 31.2508 18.2804C31.4144 18.3106 31.588 18.3072 31.7717 18.2703C31.9513 18.2271 32.2113 18.1547 32.5517 18.0532C33.0002 17.9093 33.3805 17.8137 33.6927 17.7664C34.0072 17.7086 34.3194 17.7244 34.6292 17.8138C34.9391 17.9032 35.2059 18.115 35.4295 18.4491C35.6222 18.749 35.7115 19.0703 35.6972 19.413C35.683 19.7557 35.5658 20.0925 35.3456 20.4233C35.1318 20.75 34.8206 21.0445 34.4122 21.3069Z" fill="#9BBCD0"/>
<path d="M25.3076 21.7219L27.6166 24.3122C27.7731 24.4877 27.9263 24.5798 28.0762 24.5884C28.2267 24.5863 28.4011 24.4969 28.5993 24.3203L29.1938 23.7903L29.913 24.5972L29.1486 25.2785C28.7126 25.6671 28.2877 25.863 27.8739 25.8661C27.4601 25.8692 27.0488 25.6414 26.64 25.1828L24.331 22.5925L23.7789 23.0846L23.0749 22.2947L23.6269 21.8027L22.5898 20.6391L23.5664 19.7685L24.6036 20.9321L25.7416 19.9176L26.4457 20.7074L25.3076 21.7219Z" fill="#9BBCD0"/>
<path d="M17.7086 28.3122C18.0037 27.9364 18.3466 27.6656 18.7372 27.4998C19.1325 27.328 19.5538 27.2828 20.0011 27.3641C20.4531 27.4394 20.9028 27.6527 21.3502 28.0041L24.2582 30.2879L23.4641 31.299L20.7082 29.1346C20.2668 28.7879 19.8431 28.6336 19.4372 28.6716C19.0252 28.7049 18.6693 28.9124 18.3695 29.2942C18.0697 29.676 17.9501 30.0739 18.0106 30.4879C18.0699 30.8913 18.3203 31.2664 18.7617 31.6131L21.5176 33.7774L20.7165 34.7975L14.0953 29.5973L14.8964 28.5773L17.1601 30.3552C17.0872 30.0182 17.0971 29.674 17.1899 29.3226C17.2874 28.9651 17.4603 28.6283 17.7086 28.3122Z" fill="#9BBCD0"/>
<path d="M10.9098 40.0063C11.1147 39.5662 11.3849 39.2193 11.7205 38.9655C12.0524 38.7017 12.3938 38.5343 12.7448 38.4634L11.9196 38.0794L12.4716 36.8932L18.2479 39.5814C18.7705 39.8246 19.1835 40.1507 19.4868 40.5595C19.797 40.9716 19.9714 41.4418 20.01 41.9701C20.0518 42.4915 19.9382 43.041 19.6694 43.6186C19.311 44.3888 18.8311 44.9435 18.2298 45.2828C17.6354 45.6252 17.0128 45.6868 16.3619 45.4675L16.9044 44.302C17.2416 44.3502 17.5669 44.2715 17.8801 44.0659C18.2034 43.8566 18.4594 43.5491 18.6482 43.1434C18.8691 42.6689 18.9023 42.22 18.7479 41.7968C18.5967 41.3667 18.246 41.0236 17.6959 40.7676L16.7469 40.326C16.9223 40.6502 17.0228 41.0274 17.0485 41.4577C17.0704 41.8778 16.9806 42.3045 16.779 42.7377C16.5486 43.2329 16.2136 43.6291 15.774 43.9265C15.3308 44.2138 14.8296 44.3738 14.2706 44.4064C13.708 44.429 13.1413 44.3075 12.5705 44.0419C11.9998 43.7763 11.5487 43.4241 11.2175 42.9855C10.8894 42.54 10.6994 42.0584 10.6475 41.5407C10.592 41.0129 10.6794 40.5014 10.9098 40.0063ZM14.7561 39.3995C14.3642 39.2171 13.9854 39.1412 13.6198 39.1718C13.2573 39.1955 12.9397 39.3029 12.6668 39.4938C12.3939 39.6847 12.187 39.9314 12.0462 40.234C11.9054 40.5366 11.8498 40.8537 11.8795 41.1854C11.9023 41.5139 12.0197 41.8279 12.2317 42.1274C12.4401 42.4167 12.7402 42.6526 13.1322 42.835C13.5241 43.0175 13.9048 43.0984 14.2741 43.0778C14.6466 43.0504 14.9727 42.9429 15.2525 42.7552C15.5286 42.5574 15.7354 42.3106 15.873 42.0149C16.0138 41.7124 16.0694 41.3952 16.0397 41.0635C16.0101 40.7318 15.8876 40.4197 15.6724 40.1271C15.4535 39.8244 15.1481 39.5819 14.7561 39.3995Z" fill="#9BBCD0"/>
<path d="M7.76283 47.0029C7.69961 47.2294 7.56987 47.3979 7.37363 47.5085C7.17738 47.6191 6.96603 47.6428 6.73956 47.5796C6.51309 47.5163 6.34456 47.3866 6.23398 47.1903C6.1234 46.9941 6.09972 46.7827 6.16295 46.5563C6.22413 46.3371 6.35285 46.1722 6.5491 46.0617C6.74534 45.9511 6.9567 45.9274 7.18316 45.9906C7.40963 46.0539 7.57816 46.1836 7.68874 46.3798C7.79932 46.5761 7.82402 46.7838 7.76283 47.0029ZM8.7341 46.6126L14.772 48.2983L14.4233 49.5476L8.38533 47.8618L8.7341 46.6126Z" fill="#9BBCD0"/>
<path d="M13.2976 55.7177L9.944 57.1566L9.82851 58.1396L12.9698 58.5086L12.8184 59.7968L4.96531 58.8742L5.28389 56.1623C5.35469 55.5597 5.51988 55.0636 5.77948 54.6741C6.03996 54.277 6.35917 53.9976 6.73712 53.8358C7.11595 53.6665 7.52382 53.6075 7.96073 53.6588C8.47297 53.719 8.92232 53.9245 9.30877 54.2754C9.68857 54.6178 9.91752 55.1068 9.99561 55.7422L13.4782 54.1809L13.2976 55.7177ZM8.80026 58.0188L8.96752 56.5951C9.02416 56.113 8.94611 55.7372 8.73337 55.4679C8.52152 55.191 8.2122 55.0286 7.80542 54.9808C7.39864 54.933 7.0681 55.0164 6.81379 55.2309C6.55195 55.4445 6.39226 55.7962 6.33474 56.2858L6.16749 57.7095L8.80026 58.0188Z" fill="#9BBCD0"/>
<path d="M8.06173 74.174C7.96515 73.6983 7.97651 73.2587 8.09582 72.8553C8.20619 72.4459 8.38148 72.1084 8.62168 71.843L7.72971 72.0241L7.46938 70.7419L13.7132 69.4742C14.2781 69.3595 14.804 69.3765 15.2909 69.5253C15.7851 69.6727 16.2047 69.9474 16.5495 70.3495C16.8927 70.7441 17.1278 71.2537 17.2545 71.8781C17.4235 72.7106 17.3669 73.4418 17.0846 74.0719C16.8098 74.7004 16.3454 75.1198 15.6915 75.3299L15.4357 74.07C15.7357 73.9085 15.9507 73.652 16.0806 73.3006C16.2164 72.9402 16.2397 72.5407 16.1507 72.1022C16.0466 71.5893 15.8067 71.2084 15.4311 70.9596C15.0541 70.7034 14.5682 70.6356 13.9735 70.7564L12.9478 70.9646C13.2814 71.1213 13.5863 71.3651 13.8625 71.6961C14.1297 72.021 14.3108 72.4177 14.4059 72.886C14.5146 73.4212 14.4804 73.9389 14.3033 74.4392C14.1174 74.9336 13.8092 75.3599 13.3789 75.7182C12.9396 76.0705 12.4115 76.3093 11.7945 76.4346C11.1776 76.5598 10.6056 76.5444 10.0785 76.3883C9.55001 76.2247 9.11114 75.95 8.76194 75.5643C8.4038 75.1726 8.17039 74.7092 8.06173 74.174ZM10.7959 71.4015C10.3722 71.4876 10.0224 71.6515 9.74638 71.8932C9.4689 72.1276 9.27707 72.4026 9.17089 72.7183C9.06471 73.0339 9.04482 73.3553 9.11122 73.6823C9.17763 74.0094 9.32127 74.2975 9.54214 74.5468C9.75559 74.7976 10.0365 74.9805 10.3849 75.0955C10.7244 75.2046 11.106 75.2161 11.5297 75.1301C11.9534 75.044 12.3077 74.8831 12.5926 74.6472C12.876 74.404 13.0745 74.1237 13.1881 73.8066C13.2928 73.4835 13.3127 73.1621 13.2478 72.8425C13.1814 72.5154 13.0377 72.2273 12.8168 71.978C12.596 71.7288 12.3121 71.5503 11.9652 71.4428C11.6093 71.3293 11.2196 71.3155 10.7959 71.4015Z" fill="#9BBCD0"/>
<path d="M12.0183 85.222C11.8125 84.774 11.722 84.3315 11.7467 83.8945C11.7682 83.4506 11.9157 83.0448 12.1892 82.6772C12.4627 82.3095 12.858 82.007 13.3749 81.7696L16.7351 80.2265L17.2717 81.3949L14.0872 82.8572C13.5771 83.0914 13.2463 83.3978 13.0946 83.7763C12.936 84.1579 12.9579 84.5693 13.1605 85.0104C13.3631 85.4516 13.6624 85.7398 14.0584 85.8751C14.4443 86.0067 14.8923 85.9554 15.4024 85.7212L18.5868 84.2588L19.1281 85.4375L13.4312 88.0536L12.89 86.8749L13.5413 86.5758C13.2183 86.4904 12.9233 86.3296 12.6562 86.0933C12.386 85.8502 12.1733 85.5597 12.0183 85.222Z" fill="#9BBCD0"/>
<path d="M15.5108 92.7052C15.6414 92.9007 15.6847 93.1089 15.6407 93.3299C15.5967 93.5508 15.4769 93.7265 15.2814 93.8571C15.0858 93.9877 14.8776 94.031 14.6567 93.9869C14.4358 93.9429 14.26 93.8232 14.1294 93.6276C14.0031 93.4384 13.9619 93.2333 14.0059 93.0124C14.0499 92.7915 14.1697 92.6157 14.3652 92.4852C14.5608 92.3546 14.769 92.3113 14.9899 92.3553C15.2108 92.3993 15.3845 92.5159 15.5108 92.7052ZM15.8477 91.7141L21.061 88.2328L21.7813 89.3114L16.568 92.7927L15.8477 91.7141Z" fill="#9BBCD0"/>
<path d="M27.0263 100.207C26.5665 100.637 26.0713 100.924 25.5407 101.067C25.0048 101.205 24.4871 101.201 23.9875 101.056C23.4772 100.91 23.033 100.635 22.6547 100.23C22.3749 99.9314 22.1667 99.5756 22.0302 99.1633C21.883 98.7505 21.8371 98.3573 21.8924 97.9835L19.6824 100.051L18.7886 99.0955L24.9368 93.3438L25.8306 94.2993L25.141 94.9444C25.5076 94.8922 25.8925 94.9373 26.2956 95.0795C26.6935 95.2162 27.0583 95.4618 27.3899 95.8162C27.763 96.215 28.0053 96.6739 28.1168 97.1928C28.2176 97.7113 28.1786 98.2359 28 98.7665C27.8106 99.2968 27.486 99.777 27.0263 100.207ZM23.5375 96.4445C23.2218 96.7399 23.0098 97.0628 22.9015 97.4134C22.7881 97.7584 22.7688 98.0932 22.8439 98.4176C22.9189 98.7421 23.0705 99.0262 23.2985 99.2699C23.5265 99.5136 23.7998 99.6837 24.1186 99.7802C24.4318 99.8819 24.7669 99.8903 25.1239 99.8057C25.4702 99.7206 25.8012 99.5304 26.1169 99.235C26.4326 98.9397 26.65 98.6169 26.769 98.2667C26.8828 97.911 26.9049 97.5683 26.8354 97.2386C26.7552 96.9086 26.6037 96.6245 26.3809 96.3863C26.1529 96.1426 25.8795 95.9725 25.5607 95.876C25.242 95.7795 24.9067 95.7764 24.5549 95.8667C24.1923 95.9565 23.8532 96.1492 23.5375 96.4445Z" fill="#9BBCD0"/>
<path d="M31.8245 107.573C31.4145 107.299 31.1054 106.97 30.8973 106.584C30.683 106.195 30.5959 105.772 30.6361 105.316C30.6763 104.859 30.8543 104.395 31.1701 103.921L33.2228 100.846L34.2921 101.56L32.3468 104.474C32.0352 104.941 31.914 105.375 31.9832 105.777C32.0482 106.185 32.2826 106.524 32.6864 106.794C33.0901 107.063 33.4961 107.152 33.9042 107.059C34.3019 106.969 34.6565 106.691 34.9681 106.224L36.9134 103.309L37.9921 104.029L34.5121 109.243L33.4333 108.523L33.8312 107.927C33.5114 108.024 33.1759 108.041 32.8246 107.98C32.467 107.915 32.1336 107.779 31.8245 107.573Z" fill="#9BBCD0"/>
<path d="M41.0579 109.008C41.1427 108.789 41.2335 108.596 41.3302 108.43L45.7976 110.158C45.9428 109.677 45.9144 109.235 45.7126 108.832C45.5107 108.429 45.1834 108.139 44.7307 107.964C44.0798 107.713 43.5147 107.807 43.0352 108.248L41.73 107.743C42.1148 107.274 42.6076 106.956 43.2086 106.79C43.7997 106.628 44.4384 106.68 45.1246 106.946C45.6835 107.162 46.1379 107.48 46.4878 107.9C46.8279 108.324 47.0378 108.812 47.1174 109.363C47.1872 109.918 47.1058 110.497 46.8733 111.098C46.6408 111.7 46.3167 112.18 45.9012 112.54C45.4757 112.904 44.9959 113.125 44.4615 113.203C43.9201 113.278 43.3629 113.205 42.7898 112.984C42.238 112.77 41.7929 112.46 41.4544 112.052C41.1158 111.645 40.9111 111.175 40.8402 110.644C40.7665 110.119 40.8391 109.574 41.0579 109.008ZM42.173 109.878C42.0077 110.327 42.0288 110.746 42.2361 111.135C42.4434 111.524 42.777 111.808 43.2368 111.985C43.6542 112.147 44.0634 112.15 44.4645 111.997C44.8628 111.85 45.1778 111.561 45.4095 111.13L42.173 109.878Z" fill="#9BBCD0"/>
<path d="M49.6192 113.762L50.7555 113.998L51.8136 108.895L53.0947 109.161L52.0366 114.263L52.7607 114.413L52.5459 115.449L51.8218 115.299L51.7317 115.734C51.5854 116.439 51.2934 116.913 50.8559 117.156C50.4093 117.404 49.785 117.445 48.9829 117.278L49.2024 116.22C49.5886 116.3 49.8751 116.282 50.0618 116.166C50.2471 116.057 50.3766 115.825 50.4506 115.468L50.5407 115.034L49.4044 114.798L49.6192 113.762Z" fill="#9BBCD0"/>
<path d="M57.5237 113.026C57.5331 112.791 57.5568 112.58 57.5947 112.391L62.3807 112.583C62.3628 112.081 62.1932 111.672 61.8718 111.356C61.5505 111.039 61.1473 110.871 60.6623 110.852C59.965 110.824 59.4608 111.096 59.1494 111.668L57.7511 111.612C57.9637 111.044 58.3274 110.584 58.8425 110.232C59.3497 109.888 59.9708 109.731 60.706 109.76C61.3047 109.784 61.8375 109.939 62.3043 110.223C62.7633 110.515 63.1195 110.908 63.3729 111.404C63.6184 111.908 63.7283 112.481 63.7025 113.125C63.6767 113.77 63.5253 114.329 63.2482 114.804C62.9633 115.286 62.5805 115.65 62.1 115.897C61.612 116.143 61.061 116.253 60.4471 116.229C59.856 116.205 59.3344 116.055 58.8824 115.779C58.4304 115.503 58.085 115.125 57.8461 114.645C57.6069 114.172 57.4995 113.633 57.5237 113.026ZM58.8602 113.49C58.8486 113.967 59.0038 114.357 59.3258 114.658C59.6477 114.96 60.055 115.12 60.5476 115.14C60.9948 115.158 61.3832 115.029 61.7131 114.754C62.0426 114.486 62.2474 114.111 62.3274 113.628L58.8602 113.49Z" fill="#9BBCD0"/>
<path d="M74.0727 116.353C73.2459 116.512 72.4926 116.491 71.8128 116.29C71.127 116.097 70.5592 115.735 70.1094 115.204C69.6536 114.682 69.3498 114.025 69.198 113.236C69.0461 112.446 69.0856 111.728 69.3165 111.081C69.5399 110.436 69.9344 109.897 70.4999 109.464C71.0594 109.039 71.7525 108.748 72.5792 108.589L75.1154 108.101L76.6088 115.866L74.0727 116.353ZM72.7791 109.628C71.8704 109.802 71.2212 110.182 70.8317 110.767C70.4421 111.352 70.3332 112.091 70.5051 112.985C70.6785 113.886 71.0559 114.543 71.6375 114.956C72.219 115.37 72.9642 115.489 73.8728 115.314L75.1353 115.072L74.0416 109.385L72.7791 109.628Z" fill="#9BBCD0"/>
<path d="M82.304 106.831L82.2051 103.404L82.9661 103.044L83.5792 106.228L82.304 106.831Z" fill="#9BBCD0"/>
<path d="M88.5814 105.456C88.451 105.26 88.3459 105.075 88.2659 104.9L92.2514 102.243C91.9422 101.848 91.5646 101.617 91.1186 101.549C90.6726 101.482 90.2477 101.583 89.8438 101.852C89.2632 102.239 89.0149 102.756 89.099 103.401L87.9346 104.178C87.7727 103.593 87.7969 103.007 88.0073 102.42C88.2156 101.844 88.6258 101.351 89.238 100.943C89.7365 100.611 90.2582 100.423 90.8031 100.379C91.3458 100.345 91.8654 100.454 92.3619 100.707C92.8562 100.97 93.2822 101.369 93.6398 101.906C93.9974 102.442 94.2035 102.984 94.2582 103.531C94.3108 104.088 94.215 104.608 93.971 105.09C93.7206 105.576 93.3399 105.989 92.8287 106.33C92.3364 106.658 91.8263 106.843 91.2982 106.885C90.7702 106.927 90.2685 106.824 89.7931 106.576C89.3219 106.334 88.918 105.96 88.5814 105.456ZM89.9352 105.045C90.2065 105.439 90.561 105.663 90.9985 105.718C91.4361 105.772 91.86 105.663 92.2702 105.389C92.6425 105.141 92.8813 104.809 92.9865 104.392C93.0959 103.982 93.0412 103.558 92.8225 103.121L89.9352 105.045Z" fill="#9BBCD0"/>
<path d="M101.314 94.3481C101.776 94.7977 102.091 95.2842 102.259 95.8076C102.427 96.3417 102.445 96.8671 102.313 97.3838C102.18 97.9005 101.905 98.3736 101.487 98.803C100.958 99.3466 100.391 99.6681 99.7866 99.7675C99.182 99.8776 98.5797 99.7624 97.9797 99.4219L98.9557 98.4191C99.2579 98.5544 99.5588 98.5932 99.8584 98.5355C100.158 98.4778 100.44 98.3131 100.704 98.0413C101.075 97.6608 101.235 97.2241 101.186 96.7313C101.136 96.2493 100.869 95.7729 100.386 95.3021C99.9019 94.8313 99.4157 94.575 98.927 94.5334C98.4331 94.4972 98.0009 94.6694 97.6306 95.0499C97.1069 95.588 96.9969 96.1741 97.3005 96.8083L96.3246 97.8112C95.9949 97.2364 95.8688 96.6373 95.9461 96.0141C96.0289 95.3961 96.3295 94.8208 96.8479 94.2881C97.2658 93.8587 97.7312 93.5708 98.2441 93.4244C98.7625 93.2832 99.2882 93.2868 99.8212 93.4351C100.354 93.5941 100.852 93.8985 101.314 94.3481Z" fill="#9BBCD0"/>
<path d="M106.839 93.3408C106.976 93.1498 107.156 93.0359 107.378 92.9993C107.6 92.9626 107.807 93.0128 107.998 93.1498C108.189 93.2869 108.303 93.4665 108.339 93.6888C108.376 93.911 108.326 94.1177 108.189 94.3088C108.056 94.4937 107.879 94.6045 107.657 94.6411C107.434 94.6777 107.228 94.6275 107.037 94.4905C106.845 94.3535 106.732 94.1739 106.695 93.9516C106.658 93.7293 106.706 93.5258 106.839 93.3408ZM105.793 93.3746L100.698 89.7217L101.454 88.6677L106.548 92.3206L105.793 93.3746Z" fill="#9BBCD0"/>
<path d="M108.419 87.2393L105.394 85.5394C105.189 85.4243 105.014 85.3869 104.87 85.4275C104.728 85.4784 104.592 85.6195 104.462 85.851L104.072 86.5453L103.13 86.0158L103.631 85.1232C103.917 84.614 104.255 84.2907 104.646 84.1534C105.036 84.016 105.499 84.0978 106.035 84.3988L109.06 86.0986L109.422 85.4539L110.345 85.9722L109.982 86.6169L111.341 87.3805L110.7 88.5211L109.342 87.7576L108.595 89.0867L107.672 88.5684L108.419 87.2393Z" fill="#9BBCD0"/>
<path d="M107.068 77.2579C107.24 76.7957 107.476 76.4099 107.776 76.1007C108.082 75.8013 108.416 75.5976 108.779 75.4897C109.15 75.3844 109.516 75.3905 109.877 75.5081L109.41 76.7669C109.153 76.696 108.9 76.7356 108.65 76.8857C108.405 77.0455 108.222 77.289 108.101 77.6162C107.974 77.9576 107.94 78.2444 108 78.4768C108.064 78.7189 108.199 78.8782 108.405 78.9546C108.626 79.0363 108.829 78.9903 109.015 78.8165C109.198 78.6498 109.438 78.3625 109.734 77.9548C110.019 77.5587 110.269 77.243 110.486 77.0078C110.702 76.7726 110.966 76.5954 111.277 76.4762C111.586 76.364 111.932 76.3791 112.316 76.5215C112.629 76.6374 112.879 76.8353 113.067 77.1151C113.261 77.3976 113.37 77.7372 113.393 78.1339C113.413 78.5377 113.34 78.9637 113.174 79.4118C112.926 80.0803 112.557 80.554 112.065 80.8328C111.578 81.1214 111.037 81.1719 110.444 80.9842L110.894 79.768C111.166 79.8442 111.415 79.8153 111.643 79.6813C111.87 79.5472 112.045 79.3167 112.166 78.9895C112.284 78.6695 112.315 78.4017 112.257 78.1862C112.2 77.9707 112.071 77.826 111.872 77.7522C111.716 77.6942 111.563 77.7024 111.414 77.7766C111.265 77.8509 111.129 77.9579 111.004 78.0978C110.886 78.2403 110.722 78.4544 110.511 78.7402C110.239 79.1247 109.993 79.4297 109.772 79.6551C109.555 79.8903 109.296 80.0653 108.995 80.1801C108.693 80.2949 108.353 80.286 107.973 80.1534C107.639 80.0295 107.374 79.8263 107.18 79.5439C106.985 79.2614 106.876 78.9219 106.854 78.5251C106.828 78.1355 106.9 77.7131 107.068 77.2579Z" fill="#9BBCD0"/>
<path d="M115.263 71.054L109.065 70.1183L109.258 68.8359L109.99 68.9462C109.765 68.7053 109.603 68.4084 109.503 68.0558C109.409 67.7118 109.39 67.3561 109.445 66.9886C109.519 66.5011 109.686 66.0776 109.948 65.7182C110.208 65.3663 110.554 65.1078 110.985 64.9428C111.415 64.7853 111.912 64.749 112.474 64.834L116.119 65.3842L115.927 66.6554L112.474 66.134C111.919 66.0503 111.47 66.1245 111.128 66.3567C110.794 66.59 110.591 66.9467 110.518 67.4267C110.446 67.9067 110.535 68.3075 110.785 68.6291C111.042 68.9594 111.448 69.1664 112.003 69.2502L115.457 69.7716L115.263 71.054Z" fill="#9BBCD0"/>
<path d="M117.68 58.792L111.991 59.1367C111.287 59.1793 110.717 58.9973 110.282 58.5905C109.848 58.1913 109.609 57.6434 109.567 56.9469C109.525 56.2504 109.695 55.674 110.078 55.2177C110.461 54.7689 111.004 54.5232 111.709 54.4806L111.788 55.7866C111.44 55.8152 111.169 55.919 110.974 56.098C110.781 56.2845 110.694 56.5443 110.714 56.8774C110.734 57.2106 110.852 57.458 111.067 57.6197C111.289 57.781 111.571 57.8513 111.912 57.8307L117.601 57.486L117.68 58.792Z" fill="#9BBCD0"/>
<path d="M111.895 40.0434C112.069 40.4967 112.13 40.9321 112.079 41.3498C112.038 41.7717 111.921 42.1334 111.727 42.4349L112.577 42.1092L113.046 43.331L107.096 45.6107C106.558 45.817 106.036 45.8868 105.532 45.8203C105.02 45.7565 104.561 45.5547 104.154 45.215C103.751 44.8823 103.435 44.4185 103.207 43.8235C102.903 43.0303 102.838 42.2997 103.013 41.6317C103.18 40.9665 103.569 40.4763 104.179 40.1612L104.639 41.3617C104.37 41.5705 104.201 41.8589 104.13 42.227C104.056 42.6048 104.099 43.0026 104.259 43.4205C104.446 43.9092 104.745 44.2453 105.157 44.4288C105.571 44.6193 106.061 44.6061 106.628 44.389L107.605 44.0144C107.25 43.9149 106.91 43.7247 106.583 43.4438C106.265 43.1673 106.021 42.806 105.85 42.3598C105.655 41.8498 105.603 41.3335 105.696 40.8109C105.797 40.2926 106.031 39.8213 106.397 39.397C106.772 38.9771 107.253 38.6545 107.841 38.4292C108.429 38.2039 108.996 38.1249 109.541 38.192C110.089 38.2662 110.568 38.4647 110.976 38.7876C111.393 39.1149 111.7 39.5335 111.895 40.0434ZM109.656 43.2287C110.06 43.074 110.378 42.8547 110.61 42.5707C110.845 42.2938 110.989 41.991 111.041 41.6621C111.094 41.3333 111.061 41.013 110.941 40.7014C110.822 40.3898 110.633 40.1292 110.374 39.9198C110.122 39.7077 109.815 39.5736 109.452 39.5176C109.099 39.466 108.721 39.5175 108.317 39.6722C107.914 39.8269 107.591 40.044 107.349 40.3236C107.109 40.6103 106.96 40.9194 106.9 41.251C106.85 41.5869 106.883 41.9072 107 42.2117C107.119 42.5234 107.309 42.7839 107.567 42.9933C107.826 43.2028 108.136 43.3319 108.496 43.3808C108.865 43.4341 109.252 43.3834 109.656 43.2287Z" fill="#9BBCD0"/>
<path d="M106.172 29.7991C106.449 30.207 106.611 30.6286 106.659 31.0636C106.711 31.505 106.632 31.9295 106.423 32.3372C106.214 32.745 105.874 33.1085 105.403 33.4279L102.343 35.5038L101.621 34.4399L104.521 32.4726C104.986 32.1575 105.261 31.8008 105.349 31.4024C105.442 30.9999 105.353 30.5977 105.08 30.196C104.808 29.7943 104.465 29.5594 104.052 29.4912C103.65 29.4251 103.216 29.5495 102.752 29.8647L99.852 31.832L99.1239 30.7587L104.311 27.2392L105.04 28.3125L104.447 28.7149C104.779 28.7459 105.097 28.8558 105.399 29.0448C105.706 29.2401 105.963 29.4915 106.172 29.7991Z" fill="#9BBCD0"/>
<path d="M101.494 22.9944C101.333 22.8231 101.256 22.6249 101.263 22.3997C101.27 22.1746 101.359 21.9815 101.53 21.8204C101.701 21.6594 101.9 21.5824 102.125 21.5894C102.35 21.5964 102.543 21.6855 102.704 21.8569C102.86 22.0227 102.934 22.2182 102.927 22.4433C102.92 22.6685 102.831 22.8615 102.66 23.0226C102.488 23.1836 102.29 23.2606 102.065 23.2536C101.84 23.2466 101.649 23.1602 101.494 22.9944ZM101.325 24.0275L96.7567 28.3206L95.8685 27.3755L100.437 23.0824L101.325 24.0275Z" fill="#9BBCD0"/>
<path d="M95.5862 19.881C95.937 19.761 96.2873 19.7351 96.6373 19.8035C96.9979 19.871 97.343 20.0447 97.6725 20.3246L96.8033 21.3478L96.5518 21.1342C96.1645 20.8052 95.7862 20.653 95.417 20.6777C95.0535 20.7073 94.6655 20.9648 94.253 21.4504L92.1169 23.965L91.1284 23.1253L95.187 18.3476L96.1755 19.1873L95.5862 19.881Z" fill="#9BBCD0"/>
<path d="M89.1294 17.7232C89.0104 17.926 88.8898 18.1015 88.7676 18.2496L84.6367 15.8254C84.416 16.2763 84.3728 16.7171 84.5071 17.1477C84.6413 17.5782 84.9178 17.9164 85.3365 18.162C85.9383 18.5152 86.5113 18.5129 87.0555 18.1551L88.2624 18.8634C87.8071 19.2645 87.2695 19.4987 86.6497 19.5659C86.0402 19.6304 85.4182 19.4764 84.7837 19.104C84.2669 18.8008 83.8696 18.4137 83.5919 17.9429C83.3245 17.4694 83.1959 16.9542 83.2061 16.3974C83.2267 15.8378 83.4001 15.28 83.7264 14.724C84.0527 14.1679 84.4499 13.7459 84.918 13.4577C85.3965 13.1669 85.9057 13.026 86.4456 13.035C86.9921 13.0479 87.5303 13.2099 88.0602 13.5208C88.5704 13.8202 88.9598 14.1983 89.2283 14.6548C89.4968 15.1114 89.6233 15.6078 89.6077 16.1439C89.5959 16.6734 89.4365 17.1999 89.1294 17.7232ZM88.169 16.6847C88.4043 16.2687 88.451 15.852 88.309 15.4345C88.1671 15.017 87.8835 14.6835 87.4583 14.434C87.0723 14.2075 86.6691 14.1379 86.2484 14.2253C85.8317 14.3061 85.4742 14.5405 85.1762 14.9284L88.169 16.6847Z" fill="#9BBCD0"/>
<path d="M76.0399 14.0199L79.3481 9.74187L80.6531 10.1799L76.3933 15.3626L74.9265 14.8703L74.667 8.17065L75.9829 8.61233L76.0399 14.0199Z" fill="#9BBCD0"/>
<path d="M70.713 6.66943C70.4816 6.62773 70.3016 6.51438 70.1731 6.32938C70.0446 6.14438 70.0012 5.93618 70.0429 5.70478C70.0846 5.47337 70.1979 5.29342 70.3829 5.16491C70.5679 5.0364 70.7761 4.99299 71.0075 5.03468C71.2315 5.07503 71.4077 5.18771 71.5362 5.37271C71.6647 5.55771 71.7081 5.76592 71.6664 5.99732C71.6247 6.22872 71.5114 6.40868 71.3264 6.53719C71.1414 6.6657 70.9369 6.70978 70.713 6.66943ZM71.1927 7.59978L70.0811 13.7693L68.8046 13.5393L69.9163 7.36978L71.1927 7.59978Z" fill="#9BBCD0"/>
<path d="M66.4255 4.78761L65.6952 13.175L64.4031 13.0625L65.1334 4.6751L66.4255 4.78761Z" fill="#9BBCD0"/>
<path d="M59.7925 9.68912C59.808 9.92374 59.8068 10.1367 59.789 10.3279L55.0096 10.643C55.0804 11.14 55.2923 11.5289 55.6452 11.8097C55.9982 12.0905 56.4169 12.2149 56.9012 12.1829C57.5975 12.137 58.0703 11.8132 58.3194 11.2115L59.7158 11.1194C59.5645 11.7071 59.2513 12.2028 58.7763 12.6066C58.3083 13.0023 57.7072 13.2244 56.9731 13.2728C56.3752 13.3122 55.8291 13.2152 55.3348 12.9818C54.8476 12.7402 54.4518 12.3863 54.1474 11.9199C53.8501 11.4454 53.6802 10.8865 53.6378 10.2432C53.5954 9.59987 53.6869 9.02754 53.9123 8.5262C54.1447 8.01679 54.4868 7.61417 54.9386 7.31834C55.3979 7.022 55.9341 6.85363 56.5472 6.8132C57.1375 6.77428 57.672 6.86826 58.1506 7.09514C58.6293 7.32202 59.0127 7.6616 59.301 8.11387C59.5887 8.55857 59.7526 9.08365 59.7925 9.68912ZM58.4146 9.36951C58.3756 8.8932 58.1801 8.52223 57.8281 8.25659C57.4762 7.99095 57.0542 7.87435 56.5623 7.90679C56.1157 7.93623 55.743 8.10523 55.4441 8.41379C55.1447 8.71478 54.9807 9.10946 54.9521 9.59782L58.4146 9.36951Z" fill="#9BBCD0"/>
<path d="M42.9858 8.12908C43.7911 7.88361 44.5424 7.82509 45.2397 7.95352C45.942 8.07248 46.5449 8.37242 47.0483 8.85332C47.5567 9.32476 47.9282 9.94501 48.1626 10.7141C48.397 11.4831 48.4336 12.2015 48.2723 12.8691C48.1183 13.5345 47.783 14.1125 47.2665 14.603C46.755 15.084 46.0965 15.4472 45.2912 15.6927L42.8208 16.4457L40.5154 8.88207L42.9858 8.12908ZM44.9827 14.6806C45.8679 14.4108 46.4732 13.9646 46.7989 13.342C47.1245 12.7194 47.1547 11.9728 46.8893 11.1022C46.6217 10.2243 46.1769 9.61053 45.555 9.26092C44.933 8.91131 44.1794 8.8714 43.2943 9.14119L42.0645 9.51602L43.753 15.0554L44.9827 14.6806Z" fill="#9BBCD0"/>
</svg>
