<svg width="149" height="149" viewBox="0 0 149 149" fill="none" xmlns="http://www.w3.org/2000/svg">
<circle cx="74.5054" cy="74.4038" r="73.1318" fill="black" stroke="#2B587F"/>
<circle cx="74.5054" cy="74.4038" r="41.4956" fill="black" stroke="#2B587F"/>
<path d="M44.9408 30.8979C44.526 31.1644 44.1056 31.3309 43.6794 31.3973C43.2556 31.4532 42.866 31.4151 42.5105 31.2828C42.151 31.1442 41.8624 30.9194 41.6446 30.6085L42.7741 29.8829C42.9368 30.0939 43.163 30.2145 43.4528 30.2447C43.7449 30.2644 44.0378 30.1799 44.3313 29.9913C44.6376 29.7945 44.8368 29.5854 44.9289 29.364C45.0233 29.132 45.0111 28.9235 44.8922 28.7385C44.7651 28.5407 44.5751 28.4554 44.3222 28.4826C44.0756 28.5058 43.7112 28.5912 43.229 28.7387C42.7637 28.8844 42.3738 28.9861 42.0593 29.0439C41.7449 29.1017 41.4274 29.0848 41.1071 28.9931C40.7931 28.8973 40.5254 28.6771 40.3041 28.3325C40.1237 28.0517 40.0426 27.7432 40.061 27.4069C40.0752 27.0642 40.1924 26.7274 40.4126 26.3966C40.6392 26.0617 40.9535 25.7651 41.3555 25.5068C41.9554 25.1215 42.5356 24.9651 43.0961 25.0377C43.6589 25.0998 44.1211 25.3843 44.4828 25.8912L43.3916 26.5923C43.2208 26.3685 43.0041 26.2417 42.7416 26.212C42.4792 26.1823 42.2011 26.2618 41.9076 26.4503C41.6204 26.6348 41.4351 26.8305 41.3517 27.0374C41.2682 27.2443 41.2839 27.437 41.3987 27.6157C41.4889 27.7561 41.6158 27.8414 41.7794 27.8715C41.943 27.9016 42.1166 27.8982 42.3003 27.8614C42.4798 27.8181 42.7399 27.7458 43.0803 27.6442C43.5288 27.5003 43.9091 27.4047 44.2213 27.3574C44.5358 27.2996 44.8479 27.3155 45.1578 27.4049C45.4677 27.4943 45.7344 27.706 45.9581 28.0401C46.1508 28.3401 46.24 28.6614 46.2258 29.0041C46.2116 29.3468 46.0944 29.6835 45.8742 30.0143C45.6603 30.341 45.3492 30.6356 44.9408 30.8979Z" fill="#9BBCD0"/>
<path d="M35.3957 31.6965L37.7047 34.2868C37.8612 34.4623 38.0144 34.5544 38.1643 34.563C38.3148 34.5609 38.4892 34.4715 38.6873 34.2949L39.2818 33.7649L40.001 34.5718L39.2367 35.2531C38.8007 35.6417 38.3758 35.8376 37.962 35.8407C37.5482 35.8438 37.1368 35.616 36.728 35.1574L34.419 32.5671L33.867 33.0592L33.1629 32.2694L33.715 31.7773L32.6778 30.6138L33.6545 29.7431L34.6917 30.9067L35.8297 29.8922L36.5337 30.6821L35.3957 31.6965Z" fill="#9BBCD0"/>
<path d="M27.2099 38.9833C27.505 38.6075 27.8479 38.3367 28.2385 38.1709C28.6338 37.9992 29.0551 37.9539 29.5024 38.0352C29.9544 38.1105 30.4041 38.3238 30.8515 38.6752L33.7595 40.959L32.9654 41.9701L30.2096 39.8057C29.7681 39.4591 29.3444 39.3047 28.9385 39.3427C28.5265 39.376 28.1707 39.5836 27.8708 39.9653C27.571 40.3471 27.4514 40.745 27.512 41.1591C27.5713 41.5625 27.8216 41.9375 28.263 42.2842L31.0189 44.4486L30.2178 45.4686L23.5966 40.2685L24.3977 39.2485L26.6614 41.0263C26.5885 40.6894 26.5984 40.3452 26.6912 39.9937C26.7887 39.6363 26.9616 39.2995 27.2099 38.9833Z" fill="#9BBCD0"/>
<path d="M19.9602 51.5732C20.165 51.1331 20.4352 50.7862 20.7708 50.5324C21.1028 50.2686 21.4442 50.1012 21.7951 50.0303L20.9699 49.6463L21.522 48.4601L27.2983 51.1483C27.8209 51.3915 28.2339 51.7176 28.5372 52.1264C28.8474 52.5385 29.0217 53.0087 29.0603 53.537C29.1021 54.0584 28.9886 54.6079 28.7198 55.1855C28.3613 55.9557 27.8815 56.5104 27.2802 56.8496C26.6858 57.1921 26.0631 57.2537 25.4123 57.0344L25.9547 55.8689C26.292 55.9171 26.6172 55.8384 26.9305 55.6328C27.2537 55.4235 27.5098 55.116 27.6986 54.7103C27.9194 54.2358 27.9526 53.7869 27.7982 53.3637C27.647 52.9336 27.2964 52.5905 26.7462 52.3345L25.7973 51.8929C25.9726 52.2171 26.0732 52.5943 26.0988 53.0246C26.1208 53.4447 26.031 53.8714 25.8293 54.3046C25.5989 54.7998 25.2639 55.196 24.8244 55.4934C24.3811 55.7807 23.88 55.9407 23.321 55.9733C22.7583 55.9959 22.1916 55.8744 21.6209 55.6088C21.0501 55.3432 20.5991 54.991 20.2678 54.5524C19.9397 54.1069 19.7497 53.6253 19.6979 53.1076C19.6423 52.5798 19.7298 52.0683 19.9602 51.5732ZM23.8065 50.9664C23.4145 50.784 23.0357 50.7081 22.6701 50.7387C22.3077 50.7624 21.99 50.8698 21.7171 51.0607C21.4442 51.2516 21.2374 51.4983 21.0966 51.8009C20.9558 52.1034 20.9002 52.4206 20.9299 52.7523C20.9527 53.0808 21.0701 53.3948 21.2821 53.6943C21.4904 53.9836 21.7906 54.2195 22.1825 54.4019C22.5745 54.5844 22.9551 54.6653 23.3244 54.6447C23.6969 54.6173 24.0231 54.5098 24.3028 54.322C24.5789 54.1243 24.7858 53.8775 24.9234 53.5818C25.0642 53.2793 25.1198 52.9621 25.0901 52.6304C25.0604 52.2987 24.938 51.9866 24.7228 51.694C24.5039 51.3913 24.1985 51.1488 23.8065 50.9664Z" fill="#9BBCD0"/>
<path d="M16.6885 59.0267C16.6253 59.2532 16.4955 59.4217 16.2993 59.5323C16.103 59.6429 15.8917 59.6666 15.6652 59.6034C15.4387 59.5401 15.2702 59.4104 15.1596 59.2142C15.0491 59.0179 15.0254 58.8065 15.0886 58.5801C15.1498 58.3609 15.2785 58.196 15.4748 58.0855C15.671 57.9749 15.8824 57.9512 16.1088 58.0144C16.3353 58.0777 16.5038 58.2074 16.6144 58.4036C16.725 58.5999 16.7497 58.8076 16.6885 59.0267ZM17.6598 58.6364L23.6977 60.3221L23.3489 61.5714L17.311 59.8857L17.6598 58.6364Z" fill="#9BBCD0"/>
<path d="M22.0938 68.5991L18.7401 70.038L18.6247 71.0211L21.7659 71.3901L21.6146 72.6783L13.7614 71.7557L14.08 69.0438C14.1508 68.4412 14.316 67.9451 14.5756 67.5556C14.8361 67.1585 15.1553 66.8791 15.5333 66.7173C15.9121 66.5479 16.32 66.4889 16.7569 66.5402C17.2691 66.6004 17.7185 66.806 18.1049 67.1568C18.4847 67.4993 18.7137 67.9882 18.7918 68.6236L22.2743 67.0624L22.0938 68.5991ZM17.5964 70.9003L17.7637 69.4766C17.8203 68.9944 17.7423 68.6187 17.5295 68.3493C17.3177 68.0724 17.0083 67.9101 16.6016 67.8623C16.1948 67.8145 15.8642 67.8979 15.6099 68.1124C15.3481 68.326 15.1884 68.6776 15.1309 69.1673L14.9636 70.591L17.5964 70.9003Z" fill="#9BBCD0"/>
<path d="M17.0287 88.4276C16.9321 87.9519 16.9434 87.5123 17.0627 87.1088C17.1731 86.6994 17.3484 86.362 17.5886 86.0965L16.6966 86.2776L16.4363 84.9954L22.6801 83.7277C23.245 83.613 23.7709 83.6301 24.2578 83.7789C24.7521 83.9262 25.1716 84.2009 25.5164 84.603C25.8596 84.9977 26.0947 85.5072 26.2214 86.1316C26.3905 86.9641 26.3338 87.6954 26.0516 88.3254C25.7767 88.954 25.3124 89.3733 24.6585 89.5834L24.4027 88.3235C24.7027 88.162 24.9176 87.9055 25.0475 87.5541C25.1833 87.1937 25.2067 86.7943 25.1176 86.3557C25.0135 85.8428 24.7736 85.462 24.3981 85.2132C24.021 84.9569 23.5351 84.8892 22.9405 85.0099L21.9147 85.2182C22.2483 85.3749 22.5532 85.6187 22.8294 85.9496C23.0966 86.2746 23.2778 86.6712 23.3728 87.1395C23.4815 87.6747 23.4473 88.1924 23.2703 88.6928C23.0843 89.1872 22.7761 89.6135 22.3458 89.9717C21.9065 90.3241 21.3784 90.5629 20.7614 90.6881C20.1445 90.8134 19.5725 90.7979 19.0455 90.6418C18.5169 90.4782 18.0781 90.2036 17.7289 89.8178C17.3707 89.4262 17.1373 88.9628 17.0287 88.4276ZM19.7628 85.6551C19.3391 85.7411 18.9893 85.905 18.7133 86.1468C18.4358 86.3811 18.244 86.6561 18.1378 86.9718C18.0316 87.2875 18.0117 87.6088 18.0781 87.9359C18.1445 88.2629 18.2882 88.5511 18.5091 88.8003C18.7225 89.0511 19.0034 89.234 19.3518 89.349C19.6913 89.4581 20.0729 89.4696 20.4966 89.3836C20.9203 89.2976 21.2746 89.1366 21.5595 88.9008C21.8429 88.6575 22.0414 88.3773 22.155 88.0601C22.2597 87.737 22.2796 87.4156 22.2147 87.096C22.1483 86.769 22.0046 86.4808 21.7838 86.2316C21.5629 85.9823 21.279 85.8039 20.9321 85.6963C20.5762 85.5828 20.1865 85.5691 19.7628 85.6551Z" fill="#9BBCD0"/>
<path d="M21.3657 100.37C21.16 99.9216 21.0694 99.479 21.0941 99.0421C21.1156 98.5982 21.2632 98.1924 21.5367 97.8248C21.8102 97.4571 22.2054 97.1546 22.7224 96.9172L26.0826 95.3741L26.6191 96.5424L23.4347 98.0048C22.9246 98.239 22.5937 98.5454 22.442 98.9239C22.2834 99.3055 22.3054 99.7169 22.508 100.158C22.7106 100.599 23.0099 100.887 23.4058 101.023C23.7918 101.154 24.2398 101.103 24.7498 100.869L27.9343 99.4064L28.4756 100.585L22.7787 103.201L22.2374 102.022L22.8888 101.723C22.5658 101.638 22.2708 101.477 22.0037 101.241C21.7335 100.998 21.5208 100.707 21.3657 100.37Z" fill="#9BBCD0"/>
<path d="M25.12 108.24C25.2505 108.436 25.2938 108.644 25.2498 108.865C25.2058 109.086 25.086 109.261 24.8905 109.392C24.695 109.523 24.4867 109.566 24.2658 109.522C24.0449 109.478 23.8691 109.358 23.7386 109.163C23.6122 108.973 23.571 108.768 23.615 108.547C23.6591 108.326 23.7788 108.151 23.9744 108.02C24.1699 107.89 24.3781 107.846 24.599 107.89C24.82 107.934 24.9936 108.051 25.12 108.24ZM25.4568 107.249L30.6702 103.768L31.3904 104.846L26.1771 108.328L25.4568 107.249Z" fill="#9BBCD0"/>
<path d="M37.2445 116.441C36.7848 116.871 36.2896 117.158 35.7589 117.301C35.2231 117.439 34.7054 117.435 34.2058 117.29C33.6955 117.144 33.2512 116.869 32.873 116.464C32.5932 116.165 32.385 115.81 32.2485 115.397C32.1012 114.984 32.0553 114.591 32.1107 114.217L29.9007 116.285L29.0068 115.329L35.155 109.578L36.0489 110.533L35.3593 111.178C35.7259 111.126 36.1108 111.171 36.5139 111.313C36.9118 111.45 37.2766 111.696 37.6082 112.05C37.9813 112.449 38.2235 112.908 38.335 113.427C38.4358 113.945 38.3969 114.47 38.2182 115C38.0288 115.531 37.7043 116.011 37.2445 116.441ZM33.7558 112.678C33.44 112.974 33.228 113.297 33.1198 113.647C33.0063 113.992 32.9871 114.327 33.0622 114.652C33.1372 114.976 33.2887 115.26 33.5167 115.504C33.7447 115.748 34.0181 115.918 34.3368 116.014C34.6501 116.116 34.9852 116.124 35.3422 116.04C35.6884 115.954 36.0194 115.764 36.3352 115.469C36.6509 115.174 36.8682 114.851 36.9872 114.501C37.101 114.145 37.1232 113.802 37.0537 113.472C36.9734 113.142 36.8219 112.858 36.5991 112.62C36.3711 112.376 36.0977 112.206 35.779 112.11C35.4602 112.013 35.1249 112.01 34.7731 112.101C34.4106 112.19 34.0715 112.383 33.7558 112.678Z" fill="#9BBCD0"/>
<path d="M42.8344 124.369C42.4244 124.095 42.1153 123.766 41.9073 123.381C41.6929 122.991 41.6058 122.569 41.646 122.112C41.6862 121.656 41.8642 121.191 42.18 120.718L44.2327 117.642L45.302 118.356L43.3567 121.27C43.0451 121.737 42.9239 122.172 42.9932 122.573C43.0582 122.982 43.2925 123.32 43.6963 123.59C44.1 123.859 44.506 123.948 44.9142 123.856C45.3118 123.765 45.6664 123.487 45.978 123.02L47.9233 120.105L49.0021 120.825L45.522 126.039L44.4432 125.319L44.8411 124.723C44.5213 124.82 44.1858 124.838 43.8345 124.776C43.4769 124.711 43.1436 124.575 42.8344 124.369Z" fill="#9BBCD0"/>
<path d="M52.9204 126.161C53.0052 125.942 53.0959 125.749 53.1926 125.583L57.6601 127.31C57.8052 126.83 57.7769 126.388 57.575 125.985C57.3732 125.581 57.0459 125.292 56.5931 125.117C55.9423 124.865 55.3771 124.96 54.8977 125.401L53.5925 124.896C53.9772 124.427 54.4701 124.109 55.071 123.943C55.6622 123.781 56.3008 123.833 56.987 124.098C57.5459 124.314 58.0003 124.632 58.3503 125.052C58.6904 125.477 58.9003 125.964 58.9799 126.516C59.0497 127.071 58.9683 127.65 58.7358 128.251C58.5033 128.852 58.1792 129.333 57.7636 129.693C57.3382 130.057 56.8583 130.278 56.324 130.356C55.7825 130.431 55.2253 130.358 54.6523 130.136C54.1005 129.923 53.6553 129.612 53.3168 129.205C52.9783 128.798 52.7736 128.328 52.7026 127.797C52.629 127.272 52.7016 126.727 52.9204 126.161ZM54.0354 127.031C53.8702 127.48 53.8912 127.898 54.0985 128.288C54.3059 128.677 54.6394 128.96 55.0993 129.138C55.5167 129.299 55.9259 129.303 56.327 129.149C56.7253 129.002 57.0403 128.713 57.272 128.283L54.0354 127.031Z" fill="#9BBCD0"/>
<path d="M62.0196 131.028L63.1559 131.264L64.214 126.162L65.4951 126.427L64.437 131.53L65.1611 131.68L64.9462 132.716L64.2221 132.566L64.132 133C63.9857 133.706 63.6938 134.18 63.2562 134.422C62.8097 134.67 62.1853 134.711 61.3833 134.545L61.6027 133.486C61.9889 133.567 62.2754 133.549 62.4622 133.432C62.6474 133.324 62.777 133.091 62.8509 132.734L62.941 132.3L61.8047 132.064L62.0196 131.028Z" fill="#9BBCD0"/>
<path d="M70.7822 130.355C70.7916 130.12 70.8152 129.908 70.8531 129.72L75.6391 129.912C75.6212 129.41 75.4516 129.001 75.1303 128.684C74.8089 128.368 74.4057 128.2 73.9207 128.18C73.2235 128.153 72.7192 128.425 72.4078 128.997L71.0096 128.941C71.2221 128.372 71.5859 127.912 72.1009 127.561C72.6081 127.217 73.2293 127.06 73.9644 127.089C74.5631 127.113 75.0959 127.267 75.5627 127.552C76.0217 127.843 76.3779 128.237 76.6313 128.733C76.8768 129.236 76.9867 129.81 76.9609 130.454C76.9352 131.098 76.7837 131.658 76.5066 132.132C76.2217 132.614 75.8389 132.979 75.3584 133.225C74.8704 133.471 74.3194 133.582 73.7055 133.558C73.1144 133.534 72.5928 133.384 72.1408 133.108C71.6888 132.832 71.3434 132.453 71.1045 131.973C70.8654 131.501 70.7579 130.961 70.7822 130.355ZM72.1186 130.818C72.1071 131.296 72.2623 131.686 72.5842 131.987C72.9061 132.288 73.3134 132.449 73.806 132.468C74.2532 132.486 74.6417 132.358 74.9715 132.082C75.301 131.815 75.5058 131.44 75.5859 130.957L72.1186 130.818Z" fill="#9BBCD0"/>
<path d="M88.355 133.521C87.5282 133.68 86.7749 133.659 86.0951 133.457C85.4093 133.265 84.8415 132.903 84.3917 132.372C83.9359 131.849 83.6321 131.193 83.4803 130.404C83.3284 129.614 83.3679 128.896 83.5988 128.249C83.8222 127.604 84.2167 127.064 84.7822 126.631C85.3416 126.207 86.0348 125.915 86.8615 125.756L89.3977 125.268L90.8911 133.033L88.355 133.521ZM87.0614 126.795C86.1527 126.97 85.5035 127.35 85.1139 127.934C84.7244 128.519 84.6155 129.258 84.7874 130.152C84.9608 131.053 85.3382 131.711 85.9198 132.124C86.5013 132.537 87.2464 132.657 88.1551 132.482L89.4176 132.239L88.3238 126.552L87.0614 126.795Z" fill="#9BBCD0"/>
<path d="M97.3381 123.685L97.2392 120.258L98.0002 119.898L98.6133 123.082L97.3381 123.685Z" fill="#9BBCD0"/>
<path d="M104.331 121.866C104.2 121.671 104.095 121.486 104.015 121.311L108.001 118.654C107.691 118.259 107.314 118.027 106.868 117.96C106.422 117.893 105.997 117.994 105.593 118.263C105.012 118.65 104.764 119.166 104.848 119.812L103.684 120.588C103.522 120.004 103.546 119.418 103.757 118.831C103.965 118.254 104.375 117.762 104.987 117.354C105.486 117.022 106.008 116.833 106.552 116.789C107.095 116.756 107.615 116.865 108.111 117.117C108.605 117.38 109.031 117.78 109.389 118.317C109.747 118.853 109.953 119.395 110.007 119.942C110.06 120.499 109.964 121.019 109.72 121.5C109.47 121.986 109.089 122.4 108.578 122.741C108.086 123.069 107.576 123.254 107.048 123.296C106.519 123.338 106.018 123.235 105.542 122.987C105.071 122.745 104.667 122.371 104.331 121.866ZM105.684 121.456C105.956 121.85 106.31 122.074 106.748 122.128C107.185 122.183 107.609 122.074 108.019 121.8C108.392 121.552 108.631 121.22 108.736 120.803C108.845 120.393 108.791 119.969 108.572 119.531L105.684 121.456Z" fill="#9BBCD0"/>
<path d="M117.704 110.134C118.166 110.584 118.481 111.07 118.649 111.593C118.817 112.127 118.835 112.653 118.703 113.17C118.57 113.686 118.295 114.159 117.877 114.589C117.348 115.132 116.781 115.454 116.176 115.553C115.572 115.663 114.969 115.548 114.369 115.208L115.345 114.205C115.648 114.34 115.949 114.379 116.248 114.321C116.548 114.264 116.83 114.099 117.094 113.827C117.465 113.447 117.625 113.01 117.575 112.517C117.526 112.035 117.259 111.559 116.775 111.088C116.292 110.617 115.805 110.361 115.317 110.319C114.823 110.283 114.391 110.455 114.02 110.836C113.497 111.374 113.387 111.96 113.69 112.594L112.714 113.597C112.385 113.022 112.259 112.423 112.336 111.8C112.419 111.182 112.719 110.607 113.238 110.074C113.656 109.644 114.121 109.357 114.634 109.21C115.152 109.069 115.678 109.073 116.211 109.221C116.744 109.38 117.242 109.684 117.704 110.134Z" fill="#9BBCD0"/>
<path d="M123.495 108.754C123.632 108.563 123.811 108.449 124.034 108.412C124.256 108.376 124.462 108.426 124.654 108.563C124.845 108.7 124.958 108.88 124.995 109.102C125.032 109.324 124.982 109.531 124.845 109.722C124.712 109.907 124.535 110.018 124.312 110.054C124.09 110.091 123.883 110.041 123.692 109.904C123.501 109.767 123.387 109.587 123.351 109.365C123.314 109.142 123.362 108.939 123.495 108.754ZM122.448 108.788L117.354 105.135L118.11 104.081L123.204 107.734L122.448 108.788Z" fill="#9BBCD0"/>
<path d="M125.344 102.194L122.319 100.494C122.114 100.379 121.939 100.342 121.794 100.382C121.652 100.433 121.517 100.575 121.387 100.806L120.996 101.5L120.054 100.971L120.556 100.078C120.842 99.569 121.18 99.2457 121.57 99.1083C121.961 98.971 122.424 99.0528 122.959 99.3537L125.985 101.054L126.347 100.409L127.269 100.927L126.907 101.572L128.266 102.335L127.625 103.476L126.266 102.713L125.519 104.042L124.597 103.523L125.344 102.194Z" fill="#9BBCD0"/>
<path d="M124.277 91.5062C124.449 91.044 124.685 90.6582 124.985 90.349C125.29 90.0496 125.625 89.8459 125.988 89.738C126.359 89.6327 126.725 89.6388 127.086 89.7564L126.619 91.0152C126.362 90.9443 126.109 90.9839 125.859 91.134C125.614 91.2938 125.431 91.5373 125.309 91.8645C125.183 92.2059 125.149 92.4927 125.209 92.7251C125.273 92.9672 125.408 93.1265 125.614 93.2029C125.834 93.2846 126.038 93.2386 126.223 93.0648C126.406 92.8981 126.646 92.6108 126.943 92.2031C127.227 91.807 127.478 91.4913 127.695 91.2561C127.911 91.0209 128.175 90.8437 128.486 90.7245C128.795 90.6123 129.141 90.6274 129.525 90.7697C129.838 90.8857 130.088 91.0836 130.276 91.3634C130.47 91.6459 130.579 91.9855 130.602 92.3822C130.622 92.786 130.549 93.212 130.383 93.66C130.135 94.3286 129.765 94.8023 129.274 95.0811C128.787 95.3697 128.246 95.4202 127.652 95.2325L128.103 94.0163C128.374 94.0925 128.624 94.0636 128.851 93.9296C129.079 93.7955 129.253 93.5649 129.375 93.2378C129.493 92.9177 129.524 92.65 129.466 92.4345C129.408 92.219 129.28 92.0743 129.081 92.0005C128.924 91.9425 128.772 91.9507 128.623 92.0249C128.474 92.0992 128.337 92.2062 128.213 92.3461C128.095 92.4886 127.931 92.7027 127.72 92.9885C127.448 93.373 127.201 93.678 126.98 93.9034C126.764 94.1386 126.505 94.3136 126.203 94.4284C125.902 94.5432 125.561 94.5343 125.182 94.4017C124.848 94.2778 124.583 94.0746 124.389 93.7922C124.194 93.5097 124.085 93.1701 124.062 92.7734C124.037 92.3838 124.109 91.9614 124.277 91.5062Z" fill="#9BBCD0"/>
<path d="M132.642 84.3754L126.444 83.4397L126.637 82.1573L127.369 82.2677C127.144 82.0267 126.982 81.7299 126.882 81.3772C126.788 81.0332 126.769 80.6775 126.824 80.31C126.898 79.8225 127.065 79.399 127.327 79.0396C127.587 78.6877 127.933 78.4292 128.364 78.2642C128.795 78.1068 129.291 78.0705 129.853 78.1554L133.498 78.7056L133.306 79.9768L129.853 79.4555C129.298 79.3717 128.849 79.4459 128.507 79.6781C128.173 79.9114 127.97 80.2681 127.897 80.7481C127.825 81.2281 127.914 81.6289 128.164 81.9505C128.421 82.2808 128.827 82.4879 129.382 82.5716L132.836 83.093L132.642 84.3754Z" fill="#9BBCD0"/>
<path d="M135.026 71.2584L129.337 71.6031C128.633 71.6458 128.063 71.4637 127.628 71.0569C127.194 70.6577 126.955 70.1099 126.913 69.4134C126.871 68.7168 127.041 68.1404 127.424 67.6841C127.807 67.2354 128.351 66.9897 129.055 66.947L129.134 68.253C128.786 68.2817 128.515 68.3855 128.321 68.5644C128.127 68.7509 128.04 69.0107 128.06 69.3439C128.08 69.677 128.198 69.9244 128.413 70.0862C128.635 70.2474 128.917 70.3178 129.258 70.2971L134.947 69.9524L135.026 71.2584Z" fill="#9BBCD0"/>
<path d="M128.852 51.1977C129.025 51.651 129.087 52.0864 129.035 52.504C128.994 52.926 128.877 53.2877 128.684 53.5892L129.534 53.2635L130.002 54.4853L124.052 56.765C123.514 56.9713 122.993 57.0411 122.488 56.9746C121.976 56.9108 121.517 56.709 121.111 56.3693C120.707 56.0366 120.391 55.5728 120.163 54.9778C119.859 54.1846 119.795 53.454 119.969 52.786C120.137 52.1208 120.525 51.6306 121.136 51.3155L121.596 52.516C121.326 52.7248 121.157 53.0132 121.087 53.3812C121.012 53.7591 121.055 54.1569 121.215 54.5748C121.402 55.0635 121.702 55.3996 122.113 55.5831C122.527 55.7736 123.018 55.7604 123.584 55.5432L124.562 55.1687C124.207 55.0692 123.866 54.879 123.539 54.5981C123.222 54.3216 122.978 53.9603 122.807 53.5141C122.611 53.0041 122.56 52.4878 122.652 51.9652C122.754 51.4469 122.987 50.9756 123.353 50.5513C123.728 50.1314 124.209 49.8088 124.797 49.5835C125.385 49.3582 125.952 49.2792 126.497 49.3463C127.046 49.4205 127.524 49.619 127.932 49.9419C128.35 50.2692 128.656 50.6878 128.852 51.1977ZM126.612 54.383C127.016 54.2283 127.334 54.009 127.566 53.725C127.801 53.4481 127.945 53.1453 127.998 52.8164C128.05 52.4876 128.017 52.1673 127.898 51.8557C127.778 51.5441 127.589 51.2835 127.33 51.0741C127.078 50.862 126.771 50.7279 126.408 50.6719C126.056 50.6203 125.677 50.6718 125.274 50.8265C124.87 50.9812 124.547 51.1983 124.305 51.4779C124.065 51.7646 123.916 52.0737 123.856 52.4053C123.806 52.7412 123.839 53.0615 123.956 53.366C124.076 53.6777 124.265 53.9382 124.524 54.1476C124.783 54.3571 125.092 54.4862 125.452 54.5351C125.822 54.5884 126.208 54.5377 126.612 54.383Z" fill="#9BBCD0"/>
<path d="M122.606 40.1343C122.883 40.5422 123.045 40.9638 123.093 41.3988C123.145 41.8402 123.066 42.2647 122.857 42.6725C122.648 43.0802 122.308 43.4437 121.837 43.7631L118.777 45.839L118.056 44.7751L120.955 42.8078C121.42 42.4927 121.696 42.136 121.783 41.7376C121.877 41.3351 121.787 40.9329 121.514 40.5312C121.242 40.1295 120.899 39.8946 120.486 39.8264C120.084 39.7603 119.651 39.8847 119.186 40.1999L116.286 42.1672L115.558 41.0939L120.746 37.5744L121.474 38.6477L120.881 39.0501C121.213 39.0811 121.531 39.191 121.833 39.38C122.14 39.5753 122.398 39.8267 122.606 40.1343Z" fill="#9BBCD0"/>
<path d="M117.605 32.9909C117.444 32.8196 117.367 32.6213 117.374 32.3962C117.381 32.171 117.471 31.9779 117.642 31.8169C117.813 31.6559 118.011 31.5789 118.237 31.5858C118.462 31.5928 118.655 31.682 118.816 31.8533C118.972 32.0191 119.046 32.2146 119.039 32.4398C119.032 32.6649 118.943 32.858 118.772 33.019C118.6 33.18 118.402 33.2571 118.177 33.2501C117.952 33.2431 117.761 33.1567 117.605 32.9909ZM117.437 34.0239L112.869 38.3171L111.98 37.372L116.548 33.0788L117.437 34.0239Z" fill="#9BBCD0"/>
<path d="M111.289 29.5154C111.64 29.3954 111.99 29.3695 112.34 29.4379C112.701 29.5054 113.046 29.6791 113.375 29.959L112.506 30.9822L112.255 30.7686C111.867 30.4396 111.489 30.2874 111.12 30.3121C110.756 30.3417 110.368 30.5992 109.956 31.0848L107.82 33.5994L106.831 32.7597L110.89 27.982L111.878 28.8217L111.289 29.5154Z" fill="#9BBCD0"/>
<path d="M104.095 26.8929C103.976 27.0956 103.855 27.2711 103.733 27.4193L99.6019 24.9951C99.3813 25.446 99.3381 25.8868 99.4723 26.3173C99.6066 26.7479 99.8831 27.086 100.302 27.3317C100.904 27.6849 101.477 27.6826 102.021 27.3248L103.228 28.033C102.772 28.4342 102.235 28.6684 101.615 28.7356C101.005 28.8 100.383 28.6461 99.7489 28.2737C99.2322 27.9704 98.8349 27.5834 98.5571 27.1126C98.2898 26.6391 98.1612 26.1239 98.1714 25.567C98.1919 25.0075 98.3654 24.4497 98.6917 23.8937C99.018 23.3376 99.4152 22.9155 99.8833 22.6274C100.362 22.3366 100.871 22.1957 101.411 22.2047C101.957 22.2176 102.496 22.3795 103.025 22.6905C103.536 22.9899 103.925 23.3679 104.194 23.8245C104.462 24.2811 104.589 24.7774 104.573 25.3135C104.561 25.8431 104.402 26.3695 104.095 26.8929ZM103.134 25.8544C103.37 25.4384 103.416 25.0217 103.274 24.6042C103.132 24.1867 102.849 23.8532 102.424 23.6037C102.038 23.3772 101.634 23.3076 101.214 23.395C100.797 23.4758 100.44 23.7101 100.141 24.0981L103.134 25.8544Z" fill="#9BBCD0"/>
<path d="M90.1931 22.8942L93.5012 18.6161L94.8063 19.0542L90.5465 24.2369L89.0796 23.7445L88.8202 17.0449L90.136 17.4866L90.1931 22.8942Z" fill="#9BBCD0"/>
<path d="M84.4204 15.4641C84.189 15.4224 84.009 15.3091 83.8805 15.1241C83.752 14.9391 83.7086 14.7309 83.7503 14.4995C83.792 14.2681 83.9053 14.0881 84.0903 13.9596C84.2753 13.8311 84.4835 13.7877 84.7149 13.8294C84.9389 13.8697 85.1151 13.9824 85.2436 14.1674C85.3721 14.3524 85.4155 14.5606 85.3738 14.792C85.3321 15.0234 85.2188 15.2034 85.0338 15.3319C84.8488 15.4604 84.6443 15.5045 84.4204 15.4641ZM84.9001 16.3945L83.7885 22.5639L82.512 22.3339L83.6237 16.1645L84.9001 16.3945Z" fill="#9BBCD0"/>
<path d="M79.7427 13.5435L79.0124 21.9308L77.7203 21.8183L78.4506 13.431L79.7427 13.5435Z" fill="#9BBCD0"/>
<path d="M72.2627 18.4733C72.2781 18.7079 72.277 18.9208 72.2592 19.112L67.4798 19.4272C67.5505 19.9242 67.7624 20.3131 68.1154 20.5939C68.4683 20.8746 68.887 20.9991 69.3714 20.9671C70.0677 20.9212 70.5404 20.5974 70.7896 19.9957L72.1859 19.9036C72.0347 20.4913 71.7215 20.987 71.2464 21.3908C70.7784 21.7865 70.1774 22.0086 69.4433 22.057C68.8454 22.0964 68.2993 21.9994 67.805 21.7659C67.3178 21.5244 66.922 21.1704 66.6176 20.704C66.3203 20.2296 66.1504 19.6707 66.108 19.0274C66.0656 18.384 66.157 17.8117 66.3824 17.3104C66.6149 16.801 66.957 16.3983 67.4088 16.1025C67.8681 15.8062 68.4043 15.6378 69.0173 15.5974C69.6077 15.5585 70.1421 15.6524 70.6208 15.8793C71.0994 16.1062 71.4829 16.4458 71.7711 16.898C72.0589 17.3427 72.2227 17.8678 72.2627 18.4733ZM70.8848 18.1537C70.8458 17.6774 70.6503 17.3064 70.2983 17.0408C69.9463 16.7751 69.5244 16.6585 69.0324 16.691C68.5859 16.7204 68.2132 16.8894 67.9143 17.198C67.6149 17.499 67.4508 17.8936 67.4222 18.382L70.8848 18.1537Z" fill="#9BBCD0"/>
<path d="M54.4541 17.1816C55.2595 16.9361 56.0108 16.8776 56.708 17.006C57.4104 17.125 58.0132 17.4249 58.5166 17.9058C59.0251 18.3773 59.3965 18.9975 59.6309 19.7666C59.8653 20.5356 59.9019 21.254 59.7406 21.9216C59.5866 22.587 59.2514 23.165 58.7348 23.6554C58.2233 24.1365 57.5649 24.4997 56.7595 24.7452L54.2891 25.4982L51.9837 17.9346L54.4541 17.1816ZM56.451 23.7331C57.3362 23.4633 57.9416 23.0171 58.2672 22.3945C58.5928 21.7719 58.623 21.0253 58.3576 20.1547C58.09 19.2768 57.6452 18.663 57.0233 18.3134C56.4013 17.9638 55.6478 17.9239 54.7626 18.1937L53.5329 18.5685L55.2213 24.1079L56.451 23.7331Z" fill="#9BBCD0"/>
</svg>
